<svg width="29" height="24" viewBox="0 0 29 24" fill="none" xmlns="http://www.w3.org/2000/svg">
<path d="M28.5538 3.17122C27.51 3.63372 26.3888 3.94622 25.21 4.08747C26.4263 3.35972 27.3362 2.21431 27.77 0.864974C26.6273 1.54371 25.3767 2.02147 24.0725 2.27747C23.1955 1.34106 22.0338 0.720382 20.7679 0.511817C19.502 0.303251 18.2026 0.518464 17.0715 1.12404C15.9405 1.72962 15.041 2.69168 14.5127 3.86085C13.9844 5.03003 13.8569 6.34091 14.15 7.58997C11.8346 7.47372 9.56954 6.87191 7.50178 5.82361C5.43403 4.7753 3.6098 3.30393 2.1475 1.50497C1.6475 2.36747 1.36 3.36747 1.36 4.43247C1.35944 5.39122 1.59554 6.33528 2.04735 7.18089C2.49916 8.0265 3.1527 8.74752 3.95 9.27998C3.02535 9.25055 2.12109 9.0007 1.3125 8.55122V8.62622C1.31241 9.9709 1.77754 11.2742 2.62898 12.315C3.48042 13.3557 4.66571 14.0699 5.98375 14.3362C5.12598 14.5684 4.22667 14.6026 3.35375 14.4362C3.72562 15.5932 4.44999 16.605 5.42546 17.3299C6.40092 18.0548 7.57865 18.4565 8.79375 18.4787C6.73104 20.098 4.18361 20.9763 1.56125 20.9725C1.09673 20.9726 0.632595 20.9455 0.171249 20.8912C2.83309 22.6027 5.93168 23.511 9.09625 23.5075C19.8088 23.5075 25.665 14.635 25.665 6.93997C25.665 6.68997 25.6588 6.43747 25.6475 6.18747C26.7866 5.36369 27.7699 4.34359 28.5513 3.17497L28.5538 3.17122Z" fill="#E7DDD3"/>
</svg>
