<svg width="190" height="28" viewBox="0 0 190 28" fill="none" xmlns="http://www.w3.org/2000/svg">
<path d="M0.404 1.368H12.248V1.872H8.936V26.496H12.248V27H0.404V26.496H3.716V1.872H0.404V1.368ZM14.8842 1.368H23.3802L35.3682 18.504H35.4402V1.872H32.1282V1.368H39.3282V1.872H36.0162V27H35.0442L18.8442 3.924H18.7722V26.496H22.0842V27H14.8842V26.496H18.1962V1.872H14.8842V1.368ZM50.4238 1.872H49.1278C48.2398 1.872 47.4478 1.968 46.7518 2.16C46.0558 2.328 45.4318 2.64 44.8798 3.096C44.3278 3.528 43.8358 4.14 43.4038 4.932C42.9718 5.724 42.5758 6.732 42.2158 7.956H41.7478V1.368H64.3198V7.956H63.8518C63.4918 6.732 63.0958 5.724 62.6638 4.932C62.2318 4.14 61.7398 3.528 61.1878 3.096C60.6358 2.64 60.0118 2.328 59.3158 2.16C58.6198 1.968 57.8278 1.872 56.9398 1.872H55.6438V26.496H58.9558V27H47.1118V26.496H50.4238V1.872ZM67.0586 1.368H88.5866V7.524H88.1186C87.9986 7.116 87.7946 6.6 87.5066 5.976C87.2186 5.328 86.8106 4.704 86.2826 4.104C85.7786 3.504 85.1186 2.988 84.3026 2.556C83.4866 2.1 82.4906 1.872 81.3146 1.872H75.5906V12.996H77.6066C78.4946 12.996 79.2386 12.876 79.8386 12.636C80.4626 12.372 80.9786 12.012 81.3866 11.556C81.7946 11.076 82.1306 10.512 82.3946 9.864C82.6586 9.192 82.8746 8.448 83.0426 7.632H83.5106V18.828H83.0426C82.8746 18.132 82.6706 17.46 82.4306 16.812C82.2146 16.164 81.9146 15.6 81.5306 15.12C81.1466 14.616 80.6666 14.22 80.0906 13.932C79.5386 13.644 78.8426 13.5 78.0026 13.5H75.5906V26.496H81.4946C82.5986 26.496 83.5946 26.316 84.4826 25.956C85.3706 25.572 86.1506 25.044 86.8226 24.372C87.5186 23.7 88.0946 22.92 88.5506 22.032C89.0066 21.12 89.3546 20.148 89.5946 19.116H90.0626V27H67.0586V26.496H70.3706V1.872H67.0586V1.368ZM101.499 12.996H102.975C104.055 12.996 104.907 12.852 105.531 12.564C106.155 12.276 106.623 11.892 106.935 11.412C107.247 10.908 107.439 10.344 107.511 9.72C107.607 9.096 107.655 8.46 107.655 7.812C107.655 6.756 107.583 5.856 107.439 5.112C107.295 4.344 107.055 3.72 106.719 3.24C106.383 2.736 105.915 2.364 105.315 2.124C104.739 1.884 103.995 1.764 103.083 1.764C102.819 1.764 102.555 1.776 102.291 1.8C102.027 1.824 101.763 1.848 101.499 1.872V12.996ZM96.279 1.872H92.967V1.368H98.403C99.411 1.368 100.407 1.356 101.391 1.332C102.375 1.284 103.371 1.26 104.379 1.26C105.315 1.26 106.299 1.356 107.331 1.548C108.387 1.74 109.347 2.076 110.211 2.556C111.075 3.012 111.783 3.636 112.335 4.428C112.911 5.22 113.199 6.216 113.199 7.416C113.199 8.376 112.983 9.204 112.551 9.9C112.119 10.572 111.555 11.124 110.859 11.556C110.187 11.988 109.431 12.324 108.591 12.564C107.751 12.78 106.923 12.924 106.107 12.996V13.176C107.283 13.392 108.327 13.608 109.239 13.824C110.175 14.04 110.979 14.364 111.651 14.796C112.323 15.228 112.851 15.828 113.235 16.596C113.643 17.364 113.895 18.396 113.991 19.692C114.111 21.204 114.207 22.416 114.279 23.328C114.351 24.24 114.447 24.948 114.567 25.452C114.711 25.956 114.891 26.292 115.107 26.46C115.347 26.628 115.683 26.712 116.115 26.712C116.595 26.712 116.991 26.58 117.303 26.316C117.615 26.028 117.891 25.764 118.131 25.524L118.491 25.848C118.251 26.088 118.011 26.316 117.771 26.532C117.555 26.724 117.291 26.892 116.979 27.036C116.691 27.18 116.331 27.288 115.899 27.36C115.467 27.456 114.927 27.504 114.279 27.504C112.959 27.504 111.927 27.3 111.183 26.892C110.439 26.46 109.887 25.932 109.527 25.308C109.167 24.684 108.939 24.012 108.843 23.292C108.771 22.548 108.723 21.852 108.699 21.204C108.651 20.22 108.579 19.272 108.483 18.36C108.411 17.424 108.219 16.596 107.907 15.876C107.595 15.156 107.127 14.58 106.503 14.148C105.879 13.716 105.003 13.5 103.875 13.5H101.499V26.496H104.811V27H92.967V26.496H96.279V1.872ZM119.092 1.368H130.936V1.872H127.624V26.496H130.936V27H119.092V26.496H122.404V1.872H119.092V1.368ZM139.728 14.256C139.728 16.752 139.872 18.828 140.16 20.484C140.448 22.116 140.892 23.424 141.492 24.408C142.116 25.368 142.908 26.04 143.868 26.424C144.852 26.808 146.016 27 147.36 27C149.136 27 150.528 26.676 151.536 26.028C152.544 25.356 153.3 24.444 153.804 23.292C154.308 22.116 154.62 20.736 154.74 19.152C154.884 17.544 154.956 15.804 154.956 13.932C154.956 12.252 154.896 10.656 154.776 9.144C154.68 7.608 154.38 6.264 153.876 5.112C153.372 3.936 152.604 3.012 151.572 2.34C150.564 1.644 149.16 1.296 147.36 1.296C145.68 1.296 144.336 1.62 143.328 2.268C142.32 2.892 141.552 3.78 141.024 4.932C140.496 6.084 140.148 7.452 139.98 9.036C139.812 10.62 139.728 12.36 139.728 14.256ZM133.86 14.256C133.86 12.216 134.268 10.368 135.084 8.712C135.924 7.056 136.992 5.64 138.288 4.464C139.584 3.288 141.036 2.388 142.644 1.764C144.252 1.116 145.824 0.791998 147.36 0.791998C149.016 0.791998 150.648 1.104 152.256 1.728C153.888 2.352 155.328 3.24 156.576 4.392C157.848 5.544 158.868 6.948 159.636 8.604C160.428 10.236 160.824 12.084 160.824 14.148C160.824 15.948 160.452 17.664 159.708 19.296C158.988 20.904 158.004 22.32 156.756 23.544C155.532 24.768 154.104 25.74 152.472 26.46C150.864 27.156 149.16 27.504 147.36 27.504C145.584 27.504 143.88 27.168 142.248 26.496C140.616 25.8 139.176 24.864 137.928 23.688C136.704 22.488 135.72 21.084 134.976 19.476C134.232 17.868 133.86 16.128 133.86 14.256ZM172.128 12.996H173.604C174.684 12.996 175.536 12.852 176.16 12.564C176.784 12.276 177.252 11.892 177.564 11.412C177.876 10.908 178.068 10.344 178.14 9.72C178.236 9.096 178.284 8.46 178.284 7.812C178.284 6.756 178.212 5.856 178.068 5.112C177.924 4.344 177.684 3.72 177.348 3.24C177.012 2.736 176.544 2.364 175.944 2.124C175.368 1.884 174.624 1.764 173.712 1.764C173.448 1.764 173.184 1.776 172.92 1.8C172.656 1.824 172.392 1.848 172.128 1.872V12.996ZM166.908 1.872H163.596V1.368H169.032C170.04 1.368 171.036 1.356 172.02 1.332C173.004 1.284 174 1.26 175.008 1.26C175.944 1.26 176.928 1.356 177.96 1.548C179.016 1.74 179.976 2.076 180.84 2.556C181.704 3.012 182.412 3.636 182.964 4.428C183.54 5.22 183.828 6.216 183.828 7.416C183.828 8.376 183.612 9.204 183.18 9.9C182.748 10.572 182.184 11.124 181.488 11.556C180.816 11.988 180.06 12.324 179.22 12.564C178.38 12.78 177.552 12.924 176.736 12.996V13.176C177.912 13.392 178.956 13.608 179.868 13.824C180.804 14.04 181.608 14.364 182.28 14.796C182.952 15.228 183.48 15.828 183.864 16.596C184.272 17.364 184.524 18.396 184.62 19.692C184.74 21.204 184.836 22.416 184.908 23.328C184.98 24.24 185.076 24.948 185.196 25.452C185.34 25.956 185.52 26.292 185.736 26.46C185.976 26.628 186.312 26.712 186.744 26.712C187.224 26.712 187.62 26.58 187.932 26.316C188.244 26.028 188.52 25.764 188.76 25.524L189.12 25.848C188.88 26.088 188.64 26.316 188.4 26.532C188.184 26.724 187.92 26.892 187.608 27.036C187.32 27.18 186.96 27.288 186.528 27.36C186.096 27.456 185.556 27.504 184.908 27.504C183.588 27.504 182.556 27.3 181.812 26.892C181.068 26.46 180.516 25.932 180.156 25.308C179.796 24.684 179.568 24.012 179.472 23.292C179.4 22.548 179.352 21.852 179.328 21.204C179.28 20.22 179.208 19.272 179.112 18.36C179.04 17.424 178.848 16.596 178.536 15.876C178.224 15.156 177.756 14.58 177.132 14.148C176.508 13.716 175.632 13.5 174.504 13.5H172.128V26.496H175.44V27H163.596V26.496H166.908V1.872Z" fill="#333333"/>
</svg>
